<svg xmlns="http://www.w3.org/2000/svg" width="1780" height="1600" viewBox="0 0 1780 1600" font-family="Segoe UI,Arial,sans-serif">
<rect width="1780" height="1600" fill="#0b1020"/>
<circle cx="890" cy="810" r="270" fill="none" stroke="#1b2540" stroke-width="1"/>
<circle cx="890" cy="810" r="430" fill="none" stroke="#1b2540" stroke-width="1"/>
<circle cx="890" cy="810" r="646" fill="none" stroke="#1b2540" stroke-width="1"/>
<circle cx="890" cy="810" r="140" fill="none" stroke="#1b2540" stroke-width="1"/>
<path d="M 791.0 711.0 L 390.8 310.8 A 706 706 0 0 1 1389.2 310.8 L 989.0 711.0 A 140 140 0 0 0 791.0 711.0 Z" fill="#38bdf8" fill-opacity="0.05" stroke="#38bdf8" stroke-opacity="0.18"/>
<text x="890.0" y="70.0" text-anchor="middle" font-size="19" font-weight="700" fill="#38bdf8">
<tspan x="890.0" dy="0">Recurse the Plan</tspan>
</text>
<text x="890.0" y="88.0" text-anchor="middle" font-size="12" fill="#7c8aa5" font-style="italic">single-parent intervention tree</text>
<path d="M 989.0 711.0 L 1389.2 310.8 A 706 706 0 0 1 1389.2 1309.2 L 989.0 909.0 A 140 140 0 0 0 989.0 711.0 Z" fill="#34d399" fill-opacity="0.05" stroke="#34d399" stroke-opacity="0.18"/>
<text x="1630.0" y="799.0" text-anchor="middle" font-size="19" font-weight="700" fill="#34d399">
<tspan x="1630.0" dy="0">Flat the</tspan>
<tspan x="1630.0" dy="22">Observation</tspan>
</text>
<text x="1612.0" y="810.0" text-anchor="middle" font-size="12" fill="#7c8aa5" font-style="italic">append-only event log</text>
<path d="M 989.0 909.0 L 1389.2 1309.2 A 706 706 0 0 1 390.8 1309.2 L 791.0 909.0 A 140 140 0 0 0 989.0 909.0 Z" fill="#a78bfa" fill-opacity="0.05" stroke="#a78bfa" stroke-opacity="0.18"/>
<text x="890.0" y="1550.0" text-anchor="middle" font-size="19" font-weight="700" fill="#a78bfa">
<tspan x="890.0" dy="0">Inference</tspan>
</text>
<text x="890.0" y="1532.0" text-anchor="middle" font-size="12" fill="#7c8aa5" font-style="italic">plan + obs → posteriors (twin)</text>
<path d="M 791.0 909.0 L 390.8 1309.2 A 706 706 0 0 1 390.8 310.8 L 791.0 711.0 A 140 140 0 0 0 791.0 909.0 Z" fill="#fbbf24" fill-opacity="0.05" stroke="#fbbf24" stroke-opacity="0.18"/>
<text x="150.0" y="799.0" text-anchor="middle" font-size="19" font-weight="700" fill="#fbbf24">
<tspan x="150.0" dy="0">Reproducibility</tspan>
<tspan x="150.0" dy="22">&amp; Governance</tspan>
</text>
<text x="168.0" y="810.0" text-anchor="middle" font-size="12" fill="#7c8aa5" font-style="italic">manifests, catalogs, identity, RLS</text>
<g><rect x="679.9" y="519.7" width="117.0" height="26" rx="7" fill="#0f3d2e" stroke="#34d399" stroke-width="1.6"/><circle cx="688.9" cy="528.7" r="3.2" fill="#34d399"/><text x="738.4" y="536.7" text-anchor="middle" font-size="11" fill="#d1fae5" font-family="Segoe UI,Arial,sans-serif">PlanNode schema</text></g>
<g><rect x="824.9" y="573.0" width="130.2" height="26" rx="7" fill="#0f3d2e" stroke="#34d399" stroke-width="1.6"/><circle cx="833.9" cy="582.0" r="3.2" fill="#34d399"/><text x="890.0" y="590.0" text-anchor="middle" font-size="11" fill="#d1fae5" font-family="Segoe UI,Arial,sans-serif">EffectDeclaration</text></g>
<g><rect x="993.0" y="513.7" width="97.2" height="38" rx="7" fill="#0f3d2e" stroke="#34d399" stroke-width="1.6"/><circle cx="1002.0" cy="522.7" r="3.2" fill="#34d399"/><text x="1041.6" y="530.7" text-anchor="middle" font-size="11" fill="#d1fae5" font-family="Segoe UI,Arial,sans-serif">PlanTreeEdit</text><text x="1041.6" y="544.7" text-anchor="middle" font-size="11" fill="#d1fae5" font-family="Segoe UI,Arial,sans-serif">engine</text></g>
<g><rect x="599.9" y="379.3" width="123.6" height="26" rx="7" fill="#0f3d2e" stroke="#34d399" stroke-width="1.6"/><circle cx="608.9" cy="388.3" r="3.2" fill="#34d399"/><text x="661.7" y="396.3" text-anchor="middle" font-size="11" fill="#d1fae5" font-family="Segoe UI,Arial,sans-serif">kernel.plan_node</text></g>
<g><rect x="798.5" y="413.0" width="183.0" height="26" rx="7" fill="#0f3d2e" stroke="#34d399" stroke-width="1.6"/><circle cx="807.5" cy="422.0" r="3.2" fill="#34d399"/><text x="890.0" y="430.0" text-anchor="middle" font-size="11" fill="#d1fae5" font-family="Segoe UI,Arial,sans-serif">kernel.effect_declaration</text></g>
<g><rect x="1063.1" y="373.3" width="110.4" height="38" rx="7" fill="#0f3d2e" stroke="#34d399" stroke-width="1.6"/><circle cx="1072.1" cy="382.3" r="3.2" fill="#34d399"/><text x="1118.3" y="390.3" text-anchor="middle" font-size="11" fill="#d1fae5" font-family="Segoe UI,Arial,sans-serif">Prisma + InMem</text><text x="1118.3" y="404.3" text-anchor="middle" font-size="11" fill="#d1fae5" font-family="Segoe UI,Arial,sans-serif">store</text></g>
<g><rect x="608.3" y="232.7" width="123.6" height="38" rx="7" fill="#3d320f" stroke="#fbbf24" stroke-width="1.6"/><circle cx="617.3" cy="241.7" r="3.2" fill="#fbbf24"/><text x="670.1" y="249.7" text-anchor="middle" font-size="11" fill="#fef3c7" font-family="Segoe UI,Arial,sans-serif">composeEffects()</text><text x="670.1" y="263.7" text-anchor="middle" font-size="11" fill="#fef3c7" font-family="Segoe UI,Arial,sans-serif">algebra</text></g>
<g><rect x="1038.2" y="232.7" width="143.4" height="38" rx="7" fill="#1c2433" stroke="#475569" stroke-width="1.6"/><circle cx="1047.2" cy="241.7" r="3.2" fill="#475569"/><text x="1109.9" y="249.7" text-anchor="middle" font-size="11" fill="#94a3b8" font-family="Segoe UI,Arial,sans-serif">CompositionOperator</text><text x="1109.9" y="263.7" text-anchor="middle" font-size="11" fill="#94a3b8" font-family="Segoe UI,Arial,sans-serif">catalog</text></g>
<g><rect x="1093.2" y="692.0" width="96.0" height="38" rx="7" fill="#0f3d2e" stroke="#34d399" stroke-width="1.6"/><circle cx="1102.2" cy="701.0" r="3.2" fill="#34d399"/><text x="1141.2" y="709.0" text-anchor="middle" font-size="11" fill="#d1fae5" font-family="Segoe UI,Arial,sans-serif">DomainEvent</text><text x="1141.2" y="723.0" text-anchor="middle" font-size="11" fill="#d1fae5" font-family="Segoe UI,Arial,sans-serif">envelope</text></g>
<g><rect x="1086.0" y="890.0" width="110.4" height="38" rx="7" fill="#0f3d2e" stroke="#34d399" stroke-width="1.6"/><circle cx="1095.0" cy="899.0" r="3.2" fill="#34d399"/><text x="1141.2" y="907.0" text-anchor="middle" font-size="11" fill="#d1fae5" font-family="Segoe UI,Arial,sans-serif">Publisher port</text><text x="1141.2" y="921.0" text-anchor="middle" font-size="11" fill="#d1fae5" font-family="Segoe UI,Arial,sans-serif">(outbox)</text></g>
<g><rect x="1245.9" y="568.7" width="123.6" height="26" rx="7" fill="#0f3d2e" stroke="#34d399" stroke-width="1.6"/><circle cx="1254.9" cy="577.7" r="3.2" fill="#34d399"/><text x="1307.7" y="585.7" text-anchor="middle" font-size="11" fill="#d1fae5" font-family="Segoe UI,Arial,sans-serif">kernel.event_log</text></g>
<g><rect x="1222.1" y="797.0" width="103.8" height="26" rx="7" fill="#0f3d2e" stroke="#34d399" stroke-width="1.6"/><circle cx="1231.1" cy="806.0" r="3.2" fill="#34d399"/><text x="1274.0" y="814.0" text-anchor="middle" font-size="11" fill="#d1fae5" font-family="Segoe UI,Arial,sans-serif">kernel.outbox</text></g>
<g><rect x="1226.1" y="1025.3" width="163.2" height="26" rx="7" fill="#0f3d2e" stroke="#34d399" stroke-width="1.6"/><circle cx="1235.1" cy="1034.3" r="3.2" fill="#34d399"/><text x="1307.7" y="1042.3" text-anchor="middle" font-size="11" fill="#d1fae5" font-family="Segoe UI,Arial,sans-serif">kernel.idempotency_key</text></g>
<g><rect x="1388.4" y="481.1" width="136.8" height="38" rx="7" fill="#0f3d2e" stroke="#34d399" stroke-width="1.6"/><circle cx="1397.4" cy="490.1" r="3.2" fill="#34d399"/><text x="1456.8" y="498.1" text-anchor="middle" font-size="11" fill="#d1fae5" font-family="Segoe UI,Arial,sans-serif">audit_event +chain</text><text x="1456.8" y="512.1" text-anchor="middle" font-size="11" fill="#d1fae5" font-family="Segoe UI,Arial,sans-serif">+anchor</text></g>
<g><rect x="1385.5" y="797.0" width="117.0" height="26" rx="7" fill="#0f3d2e" stroke="#34d399" stroke-width="1.6"/><circle cx="1394.5" cy="806.0" r="3.2" fill="#34d399"/><text x="1444.0" y="814.0" text-anchor="middle" font-size="11" fill="#d1fae5" font-family="Segoe UI,Arial,sans-serif">consent_receipt</text></g>
<g><rect x="1391.7" y="1100.9" width="130.2" height="38" rx="7" fill="#1c2433" stroke="#475569" stroke-width="1.6"/><circle cx="1400.7" cy="1109.9" r="3.2" fill="#475569"/><text x="1456.8" y="1117.9" text-anchor="middle" font-size="11" fill="#94a3b8" font-family="Segoe UI,Arial,sans-serif">monthly partition</text><text x="1456.8" y="1131.9" text-anchor="middle" font-size="11" fill="#94a3b8" font-family="Segoe UI,Arial,sans-serif">automation</text></g>
<g><rect x="923.9" y="1042.2" width="130.2" height="38" rx="7" fill="#3d320f" stroke="#fbbf24" stroke-width="1.6"/><circle cx="932.9" cy="1051.2" r="3.2" fill="#fbbf24"/><text x="989.0" y="1059.2" text-anchor="middle" font-size="11" fill="#fef3c7" font-family="Segoe UI,Arial,sans-serif">InferenceBackbone</text><text x="989.0" y="1073.2" text-anchor="middle" font-size="11" fill="#fef3c7" font-family="Segoe UI,Arial,sans-serif">port</text></g>
<g><rect x="729.2" y="1048.2" width="123.6" height="26" rx="7" fill="#0f3d2e" stroke="#34d399" stroke-width="1.6"/><circle cx="738.2" cy="1057.2" r="3.2" fill="#34d399"/><text x="791.0" y="1065.2" text-anchor="middle" font-size="11" fill="#d1fae5" font-family="Segoe UI,Arial,sans-serif">inference router</text></g>
<g><rect x="1066.4" y="1208.7" width="103.8" height="38" rx="7" fill="#0f3d2e" stroke="#34d399" stroke-width="1.6"/><circle cx="1075.4" cy="1217.7" r="3.2" fill="#34d399"/><text x="1118.3" y="1225.7" text-anchor="middle" font-size="11" fill="#d1fae5" font-family="Segoe UI,Arial,sans-serif">Beta-Binomial</text><text x="1118.3" y="1239.7" text-anchor="middle" font-size="11" fill="#d1fae5" font-family="Segoe UI,Arial,sans-serif">fast-path</text></g>
<g><rect x="838.1" y="1175.0" width="103.8" height="38" rx="7" fill="#3d1f15" stroke="#fb7185" stroke-width="1.6"/><circle cx="847.1" cy="1184.0" r="3.2" fill="#fb7185"/><text x="890.0" y="1192.0" text-anchor="middle" font-size="11" fill="#ffe4e6" font-family="Segoe UI,Arial,sans-serif">Normal-Normal</text><text x="890.0" y="1206.0" text-anchor="middle" font-size="11" fill="#ffe4e6" font-family="Segoe UI,Arial,sans-serif">fast-path</text></g>
<g><rect x="613.7" y="1208.7" width="96.0" height="38" rx="7" fill="#3d1f15" stroke="#fb7185" stroke-width="1.6"/><circle cx="622.7" cy="1217.7" r="3.2" fill="#fb7185"/><text x="661.7" y="1225.7" text-anchor="middle" font-size="11" fill="#ffe4e6" font-family="Segoe UI,Arial,sans-serif">LogNormal</text><text x="661.7" y="1239.7" text-anchor="middle" font-size="11" fill="#ffe4e6" font-family="Segoe UI,Arial,sans-serif">fast-path</text></g>
<g><rect x="1219.0" y="1313.9" width="117.0" height="26" rx="7" fill="#1c2433" stroke="#475569" stroke-width="1.6"/><circle cx="1228.0" cy="1322.9" r="3.2" fill="#475569"/><text x="1277.5" y="1330.9" text-anchor="middle" font-size="11" fill="#94a3b8" font-family="Segoe UI,Arial,sans-serif">posterior_cache</text></g>
<g><rect x="1071.8" y="1300.8" width="97.2" height="26" rx="7" fill="#1c2433" stroke="#475569" stroke-width="1.6"/><circle cx="1080.8" cy="1309.8" r="3.2" fill="#475569"/><text x="1120.4" y="1317.8" text-anchor="middle" font-size="11" fill="#94a3b8" font-family="Segoe UI,Arial,sans-serif">projector A7</text></g>
<g><rect x="979.5" y="1428.2" width="96.0" height="26" rx="7" fill="#1c2433" stroke="#475569" stroke-width="1.6"/><circle cx="988.5" cy="1437.2" r="3.2" fill="#475569"/><text x="1027.5" y="1445.2" text-anchor="middle" font-size="11" fill="#94a3b8" font-family="Segoe UI,Arial,sans-serif">causal A1</text></g>
<g><rect x="842.0" y="1351.0" width="96.0" height="26" rx="7" fill="#1c2433" stroke="#475569" stroke-width="1.6"/><circle cx="851.0" cy="1360.0" r="3.2" fill="#475569"/><text x="890.0" y="1368.0" text-anchor="middle" font-size="11" fill="#94a3b8" font-family="Segoe UI,Arial,sans-serif">twin A2</text></g>
<g><rect x="684.1" y="1428.2" width="136.8" height="26" rx="7" fill="#1c2433" stroke="#475569" stroke-width="1.6"/><circle cx="693.1" cy="1437.2" r="3.2" fill="#475569"/><text x="752.5" y="1445.2" text-anchor="middle" font-size="11" fill="#94a3b8" font-family="Segoe UI,Arial,sans-serif">cohort-marginal B2</text></g>
<g><rect x="591.2" y="1300.8" width="136.8" height="26" rx="7" fill="#1c2433" stroke="#475569" stroke-width="1.6"/><circle cx="600.2" cy="1309.8" r="3.2" fill="#475569"/><text x="659.6" y="1317.8" text-anchor="middle" font-size="11" fill="#94a3b8" font-family="Segoe UI,Arial,sans-serif">reverse-planner B6</text></g>
<g><rect x="444.0" y="1313.9" width="117.0" height="26" rx="7" fill="#1c2433" stroke="#475569" stroke-width="1.6"/><circle cx="453.0" cy="1322.9" r="3.2" fill="#475569"/><text x="502.5" y="1330.9" text-anchor="middle" font-size="11" fill="#94a3b8" font-family="Segoe UI,Arial,sans-serif">NumPyro sidecar</text></g>
<g><rect x="590.8" y="896.0" width="96.0" height="26" rx="7" fill="#0f3d2e" stroke="#34d399" stroke-width="1.6"/><circle cx="599.8" cy="905.0" r="3.2" fill="#34d399"/><text x="638.8" y="913.0" text-anchor="middle" font-size="11" fill="#d1fae5" font-family="Segoe UI,Arial,sans-serif">RunManifest</text></g>
<g><rect x="583.6" y="698.0" width="110.4" height="26" rx="7" fill="#0f3d2e" stroke="#34d399" stroke-width="1.6"/><circle cx="592.6" cy="707.0" r="3.2" fill="#34d399"/><text x="638.8" y="715.0" text-anchor="middle" font-size="11" fill="#d1fae5" font-family="Segoe UI,Arial,sans-serif">canonical-json</text></g>
<g><rect x="440.7" y="1082.5" width="136.8" height="26" rx="7" fill="#0f3d2e" stroke="#34d399" stroke-width="1.6"/><circle cx="449.7" cy="1091.5" r="3.2" fill="#34d399"/><text x="509.1" y="1099.5" text-anchor="middle" font-size="11" fill="#d1fae5" font-family="Segoe UI,Arial,sans-serif">mechanism registry</text></g>
<g><rect x="492.2" y="956.7" width="97.2" height="26" rx="7" fill="#0f3d2e" stroke="#34d399" stroke-width="1.6"/><circle cx="501.2" cy="965.7" r="3.2" fill="#34d399"/><text x="540.8" y="973.7" text-anchor="middle" font-size="11" fill="#d1fae5" font-family="Segoe UI,Arial,sans-serif">PolicyEngine</text></g>
<g><rect x="373.0" y="898.3" width="103.8" height="26" rx="7" fill="#0f3d2e" stroke="#34d399" stroke-width="1.6"/><circle cx="382.0" cy="907.3" r="3.2" fill="#34d399"/><text x="424.9" y="915.3" text-anchor="middle" font-size="11" fill="#d1fae5" font-family="Segoe UI,Arial,sans-serif">ConsentEngine</text></g>
<g><rect x="437.6" y="797.0" width="136.8" height="26" rx="7" fill="#0f3d2e" stroke="#34d399" stroke-width="1.6"/><circle cx="446.6" cy="806.0" r="3.2" fill="#34d399"/><text x="506.0" y="814.0" text-anchor="middle" font-size="11" fill="#d1fae5" font-family="Segoe UI,Arial,sans-serif">ScopedPrisma (RLS)</text></g>
<g><rect x="366.4" y="695.7" width="117.0" height="26" rx="7" fill="#0f3d2e" stroke="#34d399" stroke-width="1.6"/><circle cx="375.4" cy="704.7" r="3.2" fill="#34d399"/><text x="424.9" y="712.7" text-anchor="middle" font-size="11" fill="#d1fae5" font-family="Segoe UI,Arial,sans-serif">TenantPackGuard</text></g>
<g><rect x="492.2" y="637.3" width="97.2" height="26" rx="7" fill="#0f3d2e" stroke="#34d399" stroke-width="1.6"/><circle cx="501.2" cy="646.3" r="3.2" fill="#34d399"/><text x="540.8" y="654.3" text-anchor="middle" font-size="11" fill="#d1fae5" font-family="Segoe UI,Arial,sans-serif">PackRegistry</text></g>
<g><rect x="450.6" y="505.5" width="117.0" height="38" rx="7" fill="#0f3d2e" stroke="#34d399" stroke-width="1.6"/><circle cx="459.6" cy="514.5" r="3.2" fill="#34d399"/><text x="509.1" y="522.5" text-anchor="middle" font-size="11" fill="#d1fae5" font-family="Segoe UI,Arial,sans-serif">SubstrateModule</text><text x="509.1" y="536.5" text-anchor="middle" font-size="11" fill="#d1fae5" font-family="Segoe UI,Arial,sans-serif">root</text></g>
<g><rect x="282.0" y="1162.0" width="150.0" height="26" rx="7" fill="#1c2433" stroke="#475569" stroke-width="1.6"/><circle cx="291.0" cy="1171.0" r="3.2" fill="#475569"/><text x="357.0" y="1179.0" text-anchor="middle" font-size="11" fill="#94a3b8" font-family="Segoe UI,Arial,sans-serif">distribution_catalog</text></g>
<g><rect x="308.9" y="960.8" width="103.8" height="26" rx="7" fill="#1c2433" stroke="#475569" stroke-width="1.6"/><circle cx="317.9" cy="969.8" r="3.2" fill="#475569"/><text x="360.8" y="977.8" text-anchor="middle" font-size="11" fill="#94a3b8" font-family="Segoe UI,Arial,sans-serif">curve_catalog</text></g>
<g><rect x="196.0" y="797.0" width="96.0" height="26" rx="7" fill="#1c2433" stroke="#475569" stroke-width="1.6"/><circle cx="205.0" cy="806.0" r="3.2" fill="#475569"/><text x="244.0" y="814.0" text-anchor="middle" font-size="11" fill="#94a3b8" font-family="Segoe UI,Arial,sans-serif">unit_graph</text></g>
<g><rect x="292.4" y="633.2" width="136.8" height="26" rx="7" fill="#1c2433" stroke="#475569" stroke-width="1.6"/><circle cx="301.4" cy="642.2" r="3.2" fill="#475569"/><text x="360.8" y="650.2" text-anchor="middle" font-size="11" fill="#94a3b8" font-family="Segoe UI,Arial,sans-serif">dimension_ontology</text></g>
<g><rect x="288.6" y="426.0" width="136.8" height="38" rx="7" fill="#1c2433" stroke="#475569" stroke-width="1.6"/><circle cx="297.6" cy="435.0" r="3.2" fill="#475569"/><text x="357.0" y="443.0" text-anchor="middle" font-size="11" fill="#94a3b8" font-family="Segoe UI,Arial,sans-serif">subtree registry +</text><text x="357.0" y="457.0" text-anchor="middle" font-size="11" fill="#94a3b8" font-family="Segoe UI,Arial,sans-serif">signature</text></g>
<circle cx="890" cy="810" r="140" fill="#10182e" stroke="#3b4a6b" stroke-width="2"/>
<circle cx="890" cy="810" r="130" fill="none" stroke="#1f2c4d" stroke-width="1"/>
<text x="890" y="784" text-anchor="middle" font-size="26" font-weight="800" fill="#e8eefc">KERNEL</text>
<text x="890" y="806" text-anchor="middle" font-size="12" fill="#8b9ac0">substrate v1</text>
<text x="890" y="828" text-anchor="middle" font-size="10.5" fill="#6b7aa0">as simple as possible,</text>
<text x="890" y="843" text-anchor="middle" font-size="10.5" fill="#6b7aa0">as complex as required</text>
<text x="44" y="56" font-size="30" font-weight="800" fill="#e8eefc">Substrate — Kernel</text>
<text x="46" y="82" font-size="13.5" fill="#8b9ac0">implementation status · four kernel concerns (ADR-127 / ADR-176)  ·  2026-05-29</text>
<text x="48" y="1438" font-size="13" font-weight="700" fill="#aab6d4">STATE</text>
<rect x="48" y="1450" width="22" height="18" rx="5" fill="#0f3d2e" stroke="#34d399" stroke-width="1.6"/>
<text x="80" y="1464" font-size="13" fill="#c7d2e8">Done</text>
<rect x="48" y="1480" width="22" height="18" rx="5" fill="#3d320f" stroke="#fbbf24" stroke-width="1.6"/>
<text x="80" y="1494" font-size="13" fill="#c7d2e8">Partial</text>
<rect x="48" y="1510" width="22" height="18" rx="5" fill="#3d1f15" stroke="#fb7185" stroke-width="1.6"/>
<text x="80" y="1524" font-size="13" fill="#c7d2e8">Stub / scaffold</text>
<rect x="48" y="1540" width="22" height="18" rx="5" fill="#1c2433" stroke="#475569" stroke-width="1.6"/>
<text x="80" y="1554" font-size="13" fill="#c7d2e8">Planned / not started</text>
<text x="1420" y="1438" font-size="13" font-weight="700" fill="#aab6d4">RINGS (inner → outer)</text>
<text x="1420" y="1464" font-size="13" font-weight="600" fill="#c7d2e8">Hub</text>
<text x="1490" y="1464" font-size="13" fill="#8b9ac0">the four kernel concerns</text>
<text x="1420" y="1492" font-size="13" font-weight="600" fill="#c7d2e8">Ring 1</text>
<text x="1490" y="1492" font-size="13" fill="#8b9ac0">typed contracts / core primitives</text>
<text x="1420" y="1520" font-size="13" font-weight="600" fill="#c7d2e8">Ring 2</text>
<text x="1490" y="1520" font-size="13" fill="#8b9ac0">shipped runtime + DB tables</text>
<text x="1420" y="1548" font-size="13" font-weight="600" fill="#c7d2e8">Ring 3</text>
<text x="1490" y="1548" font-size="13" fill="#8b9ac0">planned primitives / catalogs</text>
</svg>